<svg xmlns="http://www.w3.org/2000/svg" width="116" height="116" viewBox="0 0 116 116">
  <g id="Group_24" data-name="Group 24" transform="translate(-124 -674)">
    <circle id="Ellipse_3" data-name="Ellipse 3" cx="58" cy="58" r="58" transform="translate(124 674)" fill="#fff"/>
    <g id="Group_23" data-name="Group 23" transform="translate(128.874 678.787)">
      <g id="Group_22" data-name="Group 22" transform="translate(0 0)">
        <path id="Path_258" data-name="Path 258" d="M224.967,686.493l-1.848-.086.122,1.823-.025.008-1.234-1.359-1.238,1.355-.025-.008.132-1.824-1.848.08-.013-.034,1.4-1.2L219.014,684l.009-.024,1.831.14-.093-1.844.037-.008,1.189,1.375,1.2-1.373.034.009-.094,1.844,1.832-.135.009.025-1.384,1.242,1.4,1.206Z" transform="translate(-168.853 -682.266)" fill="#f7931e"/>
        <path id="Path_259" data-name="Path 259" d="M256.184,695.253l2.393-5.467.577.253-2.392,5.466Z" transform="translate(-184.507 -685.431)"/>
        <path id="Path_260" data-name="Path 260" d="M281.672,713.725a3.774,3.774,0,0,1-.731-1.065,2.435,2.435,0,0,1-.255-1.066l.521-.161a2.507,2.507,0,0,0,.221.968,3.029,3.029,0,0,0,.631.951,2.507,2.507,0,0,0,.739.559,1.113,1.113,0,0,0,.634.109.912.912,0,0,0,.5-.249.791.791,0,0,0,.265-.535,1.391,1.391,0,0,0-.123-.611,5.889,5.889,0,0,0-.342-.665q-.207-.347-.4-.7a3.3,3.3,0,0,1-.3-.716,1.49,1.49,0,0,1-.028-.709,1.345,1.345,0,0,1,.414-.681,1.492,1.492,0,0,1,.748-.4,1.646,1.646,0,0,1,.93.1,2.97,2.97,0,0,1,1.029.737,3.591,3.591,0,0,1,.594.813,2.876,2.876,0,0,1,.315.882l-.51.2a2.825,2.825,0,0,0-.3-.846,3.128,3.128,0,0,0-.493-.68,2.327,2.327,0,0,0-.721-.535,1.119,1.119,0,0,0-.638-.1.947.947,0,0,0-.51.263.792.792,0,0,0-.264.536,1.335,1.335,0,0,0,.129.61,6.575,6.575,0,0,0,.349.665q.206.348.4.7a3.6,3.6,0,0,1,.294.712,1.476,1.476,0,0,1,.034.7,1.307,1.307,0,0,1-.4.672,1.465,1.465,0,0,1-.744.389,1.659,1.659,0,0,1-.936-.108A3.008,3.008,0,0,1,281.672,713.725Z" transform="translate(-194.818 -693.402)"/>
        <path id="Path_261" data-name="Path 261" d="M288.132,721.162l-.367-.514,4.858-3.466.367.513Zm7.027-.427.361.507-4.857,3.466-.362-.506Zm-2.582,1.915-2.243-3.144.451-.321,2.243,3.143Z" transform="translate(-197.798 -696.962)"/>
        <path id="Path_262" data-name="Path 262" d="M296.954,735.3a3.378,3.378,0,0,1-.341-1.222,2.932,2.932,0,0,1,.72-2.187,3.219,3.219,0,0,1,2.171-1.052,2.949,2.949,0,0,1,2.162.785,3.384,3.384,0,0,1,.749,1.03,3.345,3.345,0,0,1,.34,1.218,3,3,0,0,1-.138,1.171,2.92,2.92,0,0,1-.581,1.011,3.236,3.236,0,0,1-2.178,1.055,2.9,2.9,0,0,1-1.154-.17,2.99,2.99,0,0,1-1-.616A3.356,3.356,0,0,1,296.954,735.3Zm.506-.245a2.642,2.642,0,0,0,.6.814,2.349,2.349,0,0,0,.814.486,2.424,2.424,0,0,0,.934.13,2.673,2.673,0,0,0,1.772-.859,2.419,2.419,0,0,0,.478-.814,2.354,2.354,0,0,0,.122-.94,2.634,2.634,0,0,0-.268-.974,2.68,2.68,0,0,0-.6-.818,2.324,2.324,0,0,0-.815-.49,2.513,2.513,0,0,0-3.183,1.542,2.325,2.325,0,0,0-.12.945A2.663,2.663,0,0,0,297.46,735.058Z" transform="translate(-201.518 -702.709)"/>
        <path id="Path_263" data-name="Path 263" d="M302.009,748.313a2.435,2.435,0,0,1,.125-1.911,2.635,2.635,0,0,1,1.682-1.176l3.281-.96.177.606-3.256.952a2.194,2.194,0,0,0-1.363.9,2.066,2.066,0,0,0,.759,2.593,2.2,2.2,0,0,0,1.631.021l3.256-.953.173.589-3.281.96a2.645,2.645,0,0,1-2.048-.08A2.414,2.414,0,0,1,302.009,748.313Z" transform="translate(-203.736 -708.361)"/>
        <path id="Path_264" data-name="Path 264" d="M304.314,759.575l5.91-.83.087.625-5.369.753.464,3.309-.54.076Z" transform="translate(-204.763 -714.454)"/>
        <path id="Path_265" data-name="Path 265" d="M305.495,770.5l5.966.06-.024,2.43a3.539,3.539,0,0,1-.4,1.671,2.776,2.776,0,0,1-1.064,1.11,3.2,3.2,0,0,1-3.1-.031,2.782,2.782,0,0,1-1.042-1.131,3.549,3.549,0,0,1-.363-1.679Zm.539.636-.017,1.765a2.875,2.875,0,0,0,.3,1.379,2.269,2.269,0,0,0,.852.917,2.641,2.641,0,0,0,2.536.025,2.272,2.272,0,0,0,.866-.9,2.879,2.879,0,0,0,.325-1.374l.018-1.764Z" transform="translate(-205.249 -719.401)"/>
        <path id="Path_266" data-name="Path 266" d="M297.559,806.425l5.4,2.543-.269.571-4.9-2.311-1.425,3.022-.493-.232Z" transform="translate(-201.208 -734.521)"/>
        <path id="Path_267" data-name="Path 267" d="M291.274,818.172a3.407,3.407,0,0,1,.881-.914,2.935,2.935,0,0,1,2.25-.488,3.215,3.215,0,0,1,2.008,1.336,2.949,2.949,0,0,1,.42,2.261,3.559,3.559,0,0,1-1.384,2.079,2.989,2.989,0,0,1-1.079.475,2.9,2.9,0,0,1-1.165.012,3.246,3.246,0,0,1-2.016-1.341,2.9,2.9,0,0,1-.438-1.08,2.977,2.977,0,0,1,.021-1.179A3.365,3.365,0,0,1,291.274,818.172Zm.469.312a2.611,2.611,0,0,0-.4.928,2.334,2.334,0,0,0-.007.948,2.415,2.415,0,0,0,.363.871,2.682,2.682,0,0,0,1.639,1.091,2.428,2.428,0,0,0,.943,0,2.36,2.36,0,0,0,.873-.372,2.625,2.625,0,0,0,.7-.725,2.669,2.669,0,0,0,.4-.932,2.332,2.332,0,0,0,.009-.951,2.512,2.512,0,0,0-2.945-1.96,2.349,2.349,0,0,0-.875.375A2.664,2.664,0,0,0,291.743,818.484Z" transform="translate(-199.034 -738.853)"/>
        <path id="Path_268" data-name="Path 268" d="M284.006,828.836l6.18,2.1-.461.5-5.809-1.985.255-.276,2.448,5.635-.433.471-2.6-5.985Z" transform="translate(-196.038 -743.953)"/>
        <path id="Path_269" data-name="Path 269" d="M275.55,835.907l-2.78,2.269-.345-.423,3.269-2.667,3.773,4.623L276.3,842.3l-.345-.422,2.681-2.189Zm1.794,2.09-2.444,1.995-.339-.416L277,837.582Z" transform="translate(-191.342 -746.583)"/>
        <path id="Path_270" data-name="Path 270" d="M245.34,852.433l1.446,5.224,2.022-.559.145.525-4.65,1.287-.145-.525,2.021-.559-1.446-5.225Z" transform="translate(-179.445 -753.884)"/>
        <path id="Path_271" data-name="Path 271" d="M231.938,854.807a3.377,3.377,0,0,1,1.268.07,2.932,2.932,0,0,1,1.839,1.387,3.221,3.221,0,0,1,.3,2.394,2.948,2.948,0,0,1-1.439,1.793,3.562,3.562,0,0,1-2.479.309,2.986,2.986,0,0,1-1.063-.508,2.908,2.908,0,0,1-.771-.874,3.253,3.253,0,0,1-.3-2.4,2.911,2.911,0,0,1,.533-1.037,3,3,0,0,1,.907-.753A3.371,3.371,0,0,1,231.938,854.807Zm.069.558a2.644,2.644,0,0,0-.963.3,2.33,2.33,0,0,0-.722.614,2.407,2.407,0,0,0-.424.843,2.685,2.685,0,0,0,.243,1.955,2.418,2.418,0,0,0,.617.714,2.347,2.347,0,0,0,.85.419,2.8,2.8,0,0,0,1.976-.246,2.345,2.345,0,0,0,.727-.614,2.556,2.556,0,0,0,.185-2.794,2.451,2.451,0,0,0-.621-.718,2.329,2.329,0,0,0-.855-.418A2.667,2.667,0,0,0,232.008,855.365Z" transform="translate(-173.142 -754.871)"/>
        <path id="Path_272" data-name="Path 272" d="M198.878,851.588l-1.821,5.682-.6-.192,1.655-5.163-3.183-1.02.167-.52Z" transform="translate(-158.726 -753.019)"/>
        <path id="Path_273" data-name="Path 273" d="M186.6,847.92l-3.243-1.539.233-.492L187.4,847.7l-2.559,5.391-3.7-1.755.233-.493,3.127,1.484Zm-1.119,2.517-2.849-1.352.23-.486,2.849,1.353Z" transform="translate(-152.925 -751.13)"/>
        <path id="Path_274" data-name="Path 274" d="M178.6,842.218l-5.583,3.448-.518-.346,1.046-6.477.553.369-1.027,6.05-.213-.142,5.195-3.266Zm-1.779.73-.44.32-2.885-1.927.127-.529Z" transform="translate(-149.287 -748.165)"/>
        <path id="Path_275" data-name="Path 275" d="M166.864,834.3l-4.027,4.4-1.648-1.507a3.2,3.2,0,0,1-.8-1.059,1.881,1.881,0,0,1-.148-1.084,2.187,2.187,0,0,1,1.479-1.617,1.879,1.879,0,0,1,1.091.052,3.181,3.181,0,0,1,1.127.7l1.39,1.272-.4.024,1.473-1.611Zm-1.9,1.147.006.41-1.378-1.26a2.063,2.063,0,0,0-1.268-.628,1.546,1.546,0,0,0-1.491,1.63,2.063,2.063,0,0,0,.739,1.206l1.378,1.261-.409.029Zm-1.1-3.9-.328,2.633-.5-.46.323-2.639Z" transform="translate(-144.117 -744.901)"/>
        <path id="Path_276" data-name="Path 276" d="M157.2,825.238l-4.678,3.706-.323-.408,1.506-6.446.169.215-4.063,3.218-.386-.487,4.678-3.706.323.408-1.512,6.439-.169-.214,4.063-3.219Z" transform="translate(-139.576 -740.794)"/>
        <path id="Path_277" data-name="Path 277" d="M141.1,793.432l-6.433-1.291-.142-.606,5.186-4.02.152.647-4.879,3.721-.059-.249,6.025,1.159Zm-1.8-.681-.541-.066-.793-3.378.455-.3Z" transform="translate(-133.302 -726.562)"/>
        <path id="Path_278" data-name="Path 278" d="M138.579,780.617l-5.95.461-.2-2.566a2.593,2.593,0,0,1,.28-1.575,1.324,1.324,0,0,1,1.088-.636,1.42,1.42,0,0,1,.833.163,1.4,1.4,0,0,1,.549.573,2.086,2.086,0,0,1,.236.832l-.215-.128a2.513,2.513,0,0,1,.1-.995,1.415,1.415,0,0,1,.469-.683,1.511,1.511,0,0,1,.836-.3,1.388,1.388,0,0,1,1.216.466,2.806,2.806,0,0,1,.546,1.647Zm-.568-.588-.163-2.1a2.224,2.224,0,0,0-.361-1.178,1.079,1.079,0,0,0-1.7.131,2.229,2.229,0,0,0-.174,1.219l.168,2.168-.519.04-.152-1.963a1.934,1.934,0,0,0-.358-1.088,1.03,1.03,0,0,0-1.619.125,1.967,1.967,0,0,0-.181,1.13l.147,1.9Z" transform="translate(-132.416 -721.615)"/>
        <path id="Path_279" data-name="Path 279" d="M138.51,764.457a3.39,3.39,0,0,1-.335,1.224,2.936,2.936,0,0,1-1.742,1.507,3.229,3.229,0,0,1-2.4-.212,2.95,2.95,0,0,1-1.452-1.784,3.366,3.366,0,0,1-.115-1.268,3.331,3.331,0,0,1,.334-1.22,3,3,0,0,1,.72-.934,2.918,2.918,0,0,1,1.017-.569,3.241,3.241,0,0,1,2.412.213,2.9,2.9,0,0,1,.9.738,3,3,0,0,1,.546,1.045A3.374,3.374,0,0,1,138.51,764.457Zm-.561-.049a2.635,2.635,0,0,0-.095-1.006,2.337,2.337,0,0,0-.449-.835,2.422,2.422,0,0,0-.735-.591,2.675,2.675,0,0,0-1.962-.172,2.425,2.425,0,0,0-.828.453,2.345,2.345,0,0,0-.587.744,2.65,2.65,0,0,0-.27.973,2.69,2.69,0,0,0,.1,1.009,2.343,2.343,0,0,0,.448.84,2.515,2.515,0,0,0,3.525.31,2.319,2.319,0,0,0,.587-.749A2.644,2.644,0,0,0,137.949,764.408Z" transform="translate(-132.43 -715.428)"/>
        <path id="Path_280" data-name="Path 280" d="M140.561,750.706a2.428,2.428,0,0,1-1.091,1.574,2.633,2.633,0,0,1-2.046.142l-3.307-.866.16-.61,3.282.86a2.2,2.2,0,0,0,1.63-.067,2.066,2.066,0,0,0,.685-2.614,2.2,2.2,0,0,0-1.388-.857l-3.283-.86.156-.594,3.307.867a2.644,2.644,0,0,1,1.715,1.123A2.416,2.416,0,0,1,140.561,750.706Z" transform="translate(-133.132 -709.432)"/>
        <path id="Path_281" data-name="Path 281" d="M144.061,739.519l-4.967-2.174-.841,1.921-.5-.218,1.935-4.42.5.219-.841,1.921,4.967,2.174Z" transform="translate(-134.662 -704.303)"/>
        <path id="Path_282" data-name="Path 282" d="M163.165,710.776l-1.528-1.606.375.184-4.69-1.257.488-.464,4.121,1.1-.259.247-.9-4.171.457-.435,1.022,4.747-.165-.385,1.527,1.607Z" transform="translate(-142.898 -691.572)"/>
        <path id="Path_283" data-name="Path 283" d="M173.649,703.419a3.387,3.387,0,0,1-1.152.532,2.94,2.94,0,0,1-2.275-.362,3.22,3.22,0,0,1-1.385-1.975,2.944,2.944,0,0,1,.429-2.259,3.573,3.573,0,0,1,2.045-1.435,3,3,0,0,1,1.178-.05,2.9,2.9,0,0,1,1.09.411,3.254,3.254,0,0,1,1.391,1.982,2.908,2.908,0,0,1,.016,1.166,2.99,2.99,0,0,1-.448,1.091A3.361,3.361,0,0,1,173.649,703.419Zm-.323-.461a2.644,2.644,0,0,0,.708-.72,2.33,2.33,0,0,0,.35-.881,2.409,2.409,0,0,0-.021-.943,2.683,2.683,0,0,0-1.131-1.612,2.422,2.422,0,0,0-.88-.341,2.352,2.352,0,0,0-.948.03,2.648,2.648,0,0,0-.918.42,2.683,2.683,0,0,0-.711.723,2.334,2.334,0,0,0-.354.884,2.514,2.514,0,0,0,2.032,2.9,2.319,2.319,0,0,0,.952-.032A2.668,2.668,0,0,0,173.326,702.958Z" transform="translate(-147.717 -688.818)"/>
        <path id="Path_284" data-name="Path 284" d="M185.455,695.906a2.432,2.432,0,0,1-1.906.182,2.637,2.637,0,0,1-1.429-1.472l-1.472-3.086.57-.272,1.46,3.063a2.2,2.2,0,0,0,1.1,1.2,2.066,2.066,0,0,0,2.439-1.163,2.2,2.2,0,0,0-.24-1.614l-1.461-3.062.554-.265,1.471,3.086a2.642,2.642,0,0,1,.248,2.035A2.415,2.415,0,0,1,185.455,695.906Z" transform="translate(-152.716 -685.277)"/>
      </g>
    </g>
  </g>
</svg>
