<svg xmlns="http://www.w3.org/2000/svg" width="36.233" height="36.233" viewBox="0 0 36.233 36.233">
  <g id="Group_72" data-name="Group 72" transform="translate(-417.699 -625.058)">
    <circle id="Ellipse_7" data-name="Ellipse 7" cx="18.117" cy="18.117" r="18.117" transform="translate(417.699 625.057)"/>
    <g id="Group_71" data-name="Group 71">
      <path id="Path_467" data-name="Path 467" d="M435.88,645.982a2.627,2.627,0,0,1-1.1,2.219,3.753,3.753,0,0,1-1.192.571,5.156,5.156,0,0,1-1.444.2h-5.6V637.38h6.2a2.286,2.286,0,0,1,1.093.261,2.751,2.751,0,0,1,.833.677,3.127,3.127,0,0,1,.53.947,3.174,3.174,0,0,1-.236,2.661,2.588,2.588,0,0,1-1.241,1.1,2.978,2.978,0,0,1,1.575,1.053A3.045,3.045,0,0,1,435.88,645.982Zm-7.084-6.676v2.922h3a1.336,1.336,0,0,0,.971-.392,1.437,1.437,0,0,0,.4-1.077,1.488,1.488,0,0,0-.367-1.061,1.194,1.194,0,0,0-.906-.392Zm4.815,6.251a1.716,1.716,0,0,0-.106-.6,1.65,1.65,0,0,0-.286-.5,1.334,1.334,0,0,0-.424-.335,1.185,1.185,0,0,0-.539-.122H428.8v3.052h3.346a1.449,1.449,0,0,0,.579-.115,1.388,1.388,0,0,0,.466-.318,1.548,1.548,0,0,0,.31-.481A1.533,1.533,0,0,0,433.611,645.557Z" fill="#fff"/>
      <path id="Path_468" data-name="Path 468" d="M440.758,648.968a4.6,4.6,0,0,1-1.8-.34,4.064,4.064,0,0,1-2.253-2.285,4.352,4.352,0,0,1-.308-1.629,4.621,4.621,0,0,1,.3-1.668,4.055,4.055,0,0,1,2.254-2.317,4.6,4.6,0,0,1,1.826-.348,4.493,4.493,0,0,1,1.811.348,4.287,4.287,0,0,1,2.5,4.3,1.669,1.669,0,0,1-.04.317h-6.4a2.471,2.471,0,0,0,.237.869,2.132,2.132,0,0,0,1.171,1.06,2.228,2.228,0,0,0,.79.142,2.437,2.437,0,0,0,1.194-.308,1.631,1.631,0,0,0,.767-.814l1.819.506a3.692,3.692,0,0,1-1.463,1.557A4.532,4.532,0,0,1,440.758,648.968Zm2.151-5a2.207,2.207,0,0,0-.688-1.495,2.158,2.158,0,0,0-2.933.008,2.177,2.177,0,0,0-.467.649,2.285,2.285,0,0,0-.213.838Z" fill="#fff"/>
      <path id="Path_469" data-name="Path 469" d="M437.97,637.93h5.545v1.376H437.97Z" fill="#fff"/>
    </g>
  </g>
</svg>
