<svg xmlns="http://www.w3.org/2000/svg" width="36.233" height="36.233" viewBox="0 0 36.233 36.233">
  <g id="Group_70" data-name="Group 70" transform="translate(-305.28 -625.058)">
    <circle id="Ellipse_6" data-name="Ellipse 6" cx="18.117" cy="18.117" r="18.117" transform="translate(305.28 625.057)"/>
    <g id="Group_69" data-name="Group 69">
      <path id="Path_464" data-name="Path 464" d="M328.388,637.113a1.105,1.105,0,1,0,1.106,1.105A1.105,1.105,0,0,0,328.388,637.113Z" fill="#fff"/>
      <path id="Path_465" data-name="Path 465" d="M323.474,638.531a4.643,4.643,0,1,0,4.643,4.643A4.649,4.649,0,0,0,323.474,638.531Zm0,7.618a2.974,2.974,0,1,1,2.974-2.975A2.978,2.978,0,0,1,323.474,646.149Z" fill="#fff"/>
      <path id="Path_466" data-name="Path 466" d="M327.16,652.6h-7.528a5.671,5.671,0,0,1-5.664-5.664V639.41a5.671,5.671,0,0,1,5.664-5.664h7.528a5.671,5.671,0,0,1,5.664,5.664v7.528A5.671,5.671,0,0,1,327.16,652.6Zm-7.528-17.082a3.894,3.894,0,0,0-3.89,3.89v7.528a3.894,3.894,0,0,0,3.89,3.89h7.528a3.894,3.894,0,0,0,3.89-3.89V639.41a3.894,3.894,0,0,0-3.89-3.89Z" fill="#fff"/>
    </g>
  </g>
</svg>
