<svg xmlns="http://www.w3.org/2000/svg" width="83.797" height="83.859" viewBox="0 0 83.797 83.859">
  <g id="Group_47" data-name="Group 47" transform="translate(-92.294 -384.599)">
    <g id="Group_46" data-name="Group 46" transform="translate(92.294 384.599)">
      <path id="Path_418" data-name="Path 418" d="M260.628,467.556l-.009-1.09-1.068.13-.006-.015.76-.768-.836-.686,0-.015,1.076.02-.106-1.084.019-.009.75.785.689-.848.015,0-.024,1.081,1.081-.113.007.022-.771.743.844.66,0,.02-1.087,0,.137,1.073-.014.006-.774-.774-.665.859Z" transform="translate(-179.257 -425.89)" fill="#fff"/>
      <path id="Path_419" data-name="Path 419" d="M255.4,496.012a2.2,2.2,0,0,1,.358-.672,1.431,1.431,0,0,1,.487-.422l.226.229a1.474,1.474,0,0,0-.446.378,1.8,1.8,0,0,0-.325.587,1.472,1.472,0,0,0-.092.538.653.653,0,0,0,.115.362.535.535,0,0,0,.265.191.464.464,0,0,0,.352-.008.839.839,0,0,0,.286-.23,3.482,3.482,0,0,0,.254-.36q.125-.2.258-.4a1.937,1.937,0,0,1,.294-.349.878.878,0,0,1,.363-.208.8.8,0,0,1,.468.032.878.878,0,0,1,.412.283.967.967,0,0,1,.2.513,1.743,1.743,0,0,1-.105.737,2.137,2.137,0,0,1-.264.531,1.689,1.689,0,0,1-.375.4l-.242-.213a1.654,1.654,0,0,0,.361-.385,1.807,1.807,0,0,0,.221-.442,1.38,1.38,0,0,0,.084-.522.664.664,0,0,0-.121-.36.56.56,0,0,0-.276-.2.464.464,0,0,0-.352.007.8.8,0,0,0-.285.233,4.015,4.015,0,0,0-.253.363q-.125.2-.259.4a2.16,2.16,0,0,1-.293.347.864.864,0,0,1-.357.208.768.768,0,0,1-.462-.029.859.859,0,0,1-.4-.284.979.979,0,0,1-.2-.518A1.778,1.778,0,0,1,255.4,496.012Z" transform="translate(-177.081 -441.986)" fill="#fff"/>
      <path id="Path_420" data-name="Path 420" d="M251.2,506.071a1.983,1.983,0,0,1,.438-.6,1.708,1.708,0,0,1,1.268-.462,1.912,1.912,0,0,1,1.284.619,1.706,1.706,0,0,1,.344.595,1.76,1.76,0,0,1,.083.689,2.074,2.074,0,0,1-.626,1.308,1.436,1.436,0,0,1-.592.344l-.11-.315a1.3,1.3,0,0,0,.494-.291,1.659,1.659,0,0,0,.49-1.04,1.4,1.4,0,0,0-.071-.558,1.45,1.45,0,0,0-.28-.483,1.547,1.547,0,0,0-1.045-.5,1.45,1.45,0,0,0-.552.082,1.405,1.405,0,0,0-.481.292,1.585,1.585,0,0,0-.352.482,1.565,1.565,0,0,0-.154.55,1.344,1.344,0,0,0,.083.569l-.315.11a1.471,1.471,0,0,1-.1-.679A1.994,1.994,0,0,1,251.2,506.071Z" transform="translate(-174.848 -447.233)" fill="#fff"/>
      <path id="Path_421" data-name="Path 421" d="M244.849,515.934l1.562-.054-.221.336-1.564.058Zm1.319-2,2.936,1.932-.723,1.1a1.873,1.873,0,0,1-.542.562,1.106,1.106,0,0,1-.616.187,1.175,1.175,0,0,1-.638-.213,1.158,1.158,0,0,1-.44-.5,1.109,1.109,0,0,1-.071-.64,1.873,1.873,0,0,1,.3-.721l.61-.926.051.232-1.073-.706Zm.844,1,.238-.042-.6.919a1.207,1.207,0,0,0-.247.8.908.908,0,0,0,1.086.715,1.209,1.209,0,0,0,.633-.542l.605-.918.055.236Z" transform="translate(-171.535 -451.875)" fill="#fff"/>
      <path id="Path_422" data-name="Path 422" d="M238.918,524.375a2,2,0,0,1,.588-.463,1.73,1.73,0,0,1,1.352-.1,1.894,1.894,0,0,1,1.064.941,1.736,1.736,0,0,1,.063,1.353,2.1,2.1,0,0,1-.975,1.1,1.765,1.765,0,0,1-.667.19,1.714,1.714,0,0,1-.681-.087,1.908,1.908,0,0,1-1.068-.945,1.711,1.711,0,0,1-.168-.665,1.763,1.763,0,0,1,.107-.686A1.987,1.987,0,0,1,238.918,524.375Zm.249.22a1.554,1.554,0,0,0-.307.51,1.385,1.385,0,0,0-.08.553,1.419,1.419,0,0,0,.142.537,1.57,1.57,0,0,0,.868.768,1.432,1.432,0,0,0,.55.075,1.38,1.38,0,0,0,.539-.146,1.644,1.644,0,0,0,.777-.879,1.382,1.382,0,0,0,.082-.554,1.5,1.5,0,0,0-1.007-1.306,1.438,1.438,0,0,0-.553-.074,1.373,1.373,0,0,0-.541.148A1.57,1.57,0,0,0,239.167,524.595Z" transform="translate(-168.309 -456.967)" fill="#fff"/>
      <path id="Path_423" data-name="Path 423" d="M231.386,531.423l2.295,2.662-.282.243-2.085-2.419-1.49,1.285-.21-.244Z" transform="translate(-163.727 -460.975)" fill="#fff"/>
      <path id="Path_424" data-name="Path 424" d="M223.844,537.323l1.963,2.915-.308.207-1.783-2.648-1.632,1.1-.18-.267Z" transform="translate(-159.716 -464.044)" fill="#fff"/>
      <path id="Path_425" data-name="Path 425" d="M210.811,545.57l1.244,2.941,1.138-.481.125.3-2.617,1.107-.126-.3,1.138-.481-1.244-2.941Z" transform="translate(-153.767 -468.334)" fill="#fff"/>
      <path id="Path_426" data-name="Path 426" d="M199.371,549.038a2.008,2.008,0,0,1,.744-.068,1.732,1.732,0,0,1,1.19.651,1.892,1.892,0,0,1,.378,1.369,1.747,1.747,0,0,1-.222.65,1.765,1.765,0,0,1-.463.519,2.014,2.014,0,0,1-.676.325,1.993,1.993,0,0,1-.743.066,1.771,1.771,0,0,1-.663-.2,1.711,1.711,0,0,1-.523-.444,1.917,1.917,0,0,1-.38-1.375,1.724,1.724,0,0,1,.222-.65,1.763,1.763,0,0,1,.464-.516A1.982,1.982,0,0,1,199.371,549.038Zm.088.319a1.571,1.571,0,0,0-.535.26,1.379,1.379,0,0,0-.368.42,1.442,1.442,0,0,0-.174.528,1.585,1.585,0,0,0,.308,1.118,1.441,1.441,0,0,0,.42.363,1.392,1.392,0,0,0,.532.171,1.564,1.564,0,0,0,.593-.051,1.6,1.6,0,0,0,.537-.26,1.385,1.385,0,0,0,.371-.42,1.46,1.46,0,0,0,.177-.529,1.442,1.442,0,0,0-.045-.588,1.455,1.455,0,0,0-.686-.892,1.372,1.372,0,0,0-.535-.17A1.575,1.575,0,0,0,199.459,549.357Z" transform="translate(-147.281 -470.098)" fill="#fff"/>
      <path id="Path_427" data-name="Path 427" d="M183.687,551.82l.212,3.508-.371.023-.192-3.187-1.964.119-.02-.321Z" transform="translate(-138.621 -471.586)" fill="#fff"/>
      <path id="Path_428" data-name="Path 428" d="M173.542,552.193l-2.11-.134.02-.321,2.481.157-.222,3.507-2.405-.152.02-.32,2.034.128Zm-.063,1.62-1.853-.118.02-.315,1.854.117Z" transform="translate(-133.395 -471.543)" fill="#fff"/>
      <path id="Path_429" data-name="Path 429" d="M163.951,550.545l-2.257,3.137-.359-.071-.9-3.759.384.076.81,3.522-.148-.029,2.087-2.95Zm-.8.8-.166.274-2-.4-.05-.317Z" transform="translate(-127.742 -470.562)" fill="#fff"/>
      <path id="Path_430" data-name="Path 430" d="M152.423,547.628l-1.141,3.324-1.245-.427a1.869,1.869,0,0,1-.68-.384,1.1,1.1,0,0,1-.334-.55,1.17,1.17,0,0,1,.048-.67,1.156,1.156,0,0,1,.371-.55,1.11,1.11,0,0,1,.6-.228,1.875,1.875,0,0,1,.772.114l1.049.36-.212.107.417-1.216Zm-.759,1.067.1.22-1.041-.357a1.212,1.212,0,0,0-.832-.041.909.909,0,0,0-.422,1.23,1.212,1.212,0,0,0,.683.478l1.04.357-.214.112Zm-1.511-1.845.441,1.5-.38-.13-.446-1.5Z" transform="translate(-121.789 -468.931)" fill="#fff"/>
      <path id="Path_431" data-name="Path 431" d="M141.5,543.334l-1.593,3.133-.273-.139-.778-3.82.143.072-1.383,2.721-.327-.166L138.885,542l.273.139.772,3.818-.143-.073,1.384-2.721Z" transform="translate(-115.702 -466.479)" fill="#fff"/>
      <path id="Path_432" data-name="Path 432" d="M125.334,533.071l-2.265,2.687-.234-.2.539-3.132.122.1-2.983,1.07-.234-.2,2.266-2.686.272.229-1.906,2.261-.066-.055,2.739-.974.135.113-.49,2.87-.073-.061,1.906-2.26Z" transform="translate(-106.851 -460.609)" fill="#fff"/>
      <path id="Path_433" data-name="Path 433" d="M115.547,523.546a2,2,0,0,1,.38.644,1.732,1.732,0,0,1-.079,1.354,1.9,1.9,0,0,1-1.076.928,1.741,1.741,0,0,1-1.349-.12,2.1,2.1,0,0,1-.961-1.114,1.754,1.754,0,0,1-.1-.687,1.71,1.71,0,0,1,.177-.664,1.91,1.91,0,0,1,1.08-.931,1.71,1.71,0,0,1,.681-.078,1.751,1.751,0,0,1,.665.2A1.98,1.98,0,0,1,115.547,523.546Zm-.251.217a1.56,1.56,0,0,0-.464-.373,1.381,1.381,0,0,0-.536-.153,1.422,1.422,0,0,0-.552.068,1.573,1.573,0,0,0-.878.758,1.419,1.419,0,0,0-.149.535,1.389,1.389,0,0,0,.073.554,1.564,1.564,0,0,0,.3.513,1.581,1.581,0,0,0,.465.374,1.382,1.382,0,0,0,.539.156,1.5,1.5,0,0,0,1.429-.822,1.442,1.442,0,0,0,.148-.539,1.361,1.361,0,0,0-.075-.556A1.568,1.568,0,0,0,115.3,523.763Z" transform="translate(-102.732 -456.528)" fill="#fff"/>
      <path id="Path_434" data-name="Path 434" d="M109.234,514.8l-2.961,1.893-.709-1.108a1.886,1.886,0,0,1-.293-.725,1.109,1.109,0,0,1,.081-.638,1.175,1.175,0,0,1,.454-.5,1.154,1.154,0,0,1,.633-.2,1.108,1.108,0,0,1,.613.2,1.869,1.869,0,0,1,.534.57l.6.935-.233-.048,1.082-.692Zm-1.257.363-.059.234-.592-.926a1.213,1.213,0,0,0-.625-.551.91.91,0,0,0-1.1.7,1.214,1.214,0,0,0,.237.8l.592.927-.238-.046Zm-.035-2.386-.588,1.449-.216-.338.585-1.452Z" transform="translate(-99.037 -451.099)" fill="#fff"/>
      <path id="Path_435" data-name="Path 435" d="M103.053,505.416l-.894-1.915.291-.136,1.052,2.252-3.184,1.487L99.3,504.921l.291-.136.863,1.847Zm-1.452.723-.786-1.683.286-.134.786,1.683Z" transform="translate(-95.937 -446.38)" fill="#fff"/>
      <path id="Path_436" data-name="Path 436" d="M94.7,473.908l.025,1.09,1.067-.147.006.014-.748.781.847.672,0,.015-1.076,0,.123,1.083-.019.008-.763-.773-.676.86-.015,0,.007-1.082-1.08.131-.006-.022.759-.755-.855-.646,0-.02,1.087-.02-.155-1.071.014-.006.787.762.651-.871Z" transform="translate(-92.294 -431.055)" fill="#fff"/>
      <path id="Path_437" data-name="Path 437" d="M99.462,445.8a2.218,2.218,0,0,1-.348.677,1.431,1.431,0,0,1-.48.43l-.229-.225a1.5,1.5,0,0,0,.44-.385,1.79,1.79,0,0,0,.315-.593,1.484,1.484,0,0,0,.083-.54.655.655,0,0,0-.121-.359.532.532,0,0,0-.267-.187.467.467,0,0,0-.352.013.813.813,0,0,0-.282.235,3.452,3.452,0,0,0-.249.364q-.122.2-.251.405a1.96,1.96,0,0,1-.287.354.881.881,0,0,1-.359.213.792.792,0,0,1-.469-.024.876.876,0,0,1-.416-.275.961.961,0,0,1-.208-.511,1.739,1.739,0,0,1,.093-.739,2.126,2.126,0,0,1,.256-.535,1.693,1.693,0,0,1,.368-.41l.245.209a1.65,1.65,0,0,0-.355.391,1.839,1.839,0,0,0-.214.446,1.377,1.377,0,0,0-.076.524.672.672,0,0,0,.127.358.566.566,0,0,0,.28.19.463.463,0,0,0,.351-.013.778.778,0,0,0,.28-.238,3.75,3.75,0,0,0,.247-.367q.123-.2.253-.4a2.167,2.167,0,0,1,.287-.351.856.856,0,0,1,.354-.215.773.773,0,0,1,.462.021.861.861,0,0,1,.41.277.976.976,0,0,1,.206.515A1.77,1.77,0,0,1,99.462,445.8Z" transform="translate(-94.207 -415.346)" fill="#fff"/>
      <path id="Path_438" data-name="Path 438" d="M103.469,435.3a1.983,1.983,0,0,1-.428.609,1.709,1.709,0,0,1-1.26.482,1.91,1.91,0,0,1-1.294-.6,1.707,1.707,0,0,1-.353-.589,1.757,1.757,0,0,1-.094-.688,1.955,1.955,0,0,1,.187-.721,2,2,0,0,1,.417-.6,1.441,1.441,0,0,1,.587-.354l.115.313a1.312,1.312,0,0,0-.489.3,1.656,1.656,0,0,0-.474,1.047,1.41,1.41,0,0,0,.08.557,1.434,1.434,0,0,0,.288.478,1.545,1.545,0,0,0,1.053.487,1.438,1.438,0,0,0,.551-.091,1.39,1.39,0,0,0,.475-.3,1.633,1.633,0,0,0,.489-1.04,1.339,1.339,0,0,0-.091-.568l.313-.115a1.459,1.459,0,0,1,.113.677A1.982,1.982,0,0,1,103.469,435.3Z" transform="translate(-96.322 -409.698)" fill="#fff"/>
      <path id="Path_439" data-name="Path 439" d="M107.442,427.129l-2.967-1.884.7-1.111a1.88,1.88,0,0,1,.533-.571,1.107,1.107,0,0,1,.613-.2,1.172,1.172,0,0,1,.641.2,1.159,1.159,0,0,1,.449.489,1.107,1.107,0,0,1,.082.638,1.872,1.872,0,0,1-.291.725l-.594.937-.055-.231,1.085.69Zm-.86-.986-.237.046.589-.928a1.214,1.214,0,0,0,.235-.8.909.909,0,0,0-1.1-.7,1.213,1.213,0,0,0-.625.552l-.589.928-.06-.234Zm2.147-1.04-1.561.08.215-.339,1.564-.083Z" transform="translate(-98.63 -404.765)" fill="#fff"/>
      <path id="Path_440" data-name="Path 440" d="M115.4,416.658a2.006,2.006,0,0,1-.58.472,1.735,1.735,0,0,1-1.351.126,1.9,1.9,0,0,1-1.079-.925,1.735,1.735,0,0,1-.085-1.352,2.1,2.1,0,0,1,.956-1.117,1.767,1.767,0,0,1,.665-.2,1.713,1.713,0,0,1,.682.075,1.907,1.907,0,0,1,1.083.927,1.721,1.721,0,0,1,.18.663,1.771,1.771,0,0,1-.1.687A1.984,1.984,0,0,1,115.4,416.658Zm-.252-.215a1.557,1.557,0,0,0,.3-.515,1.372,1.372,0,0,0,.071-.554,1.41,1.41,0,0,0-.15-.535,1.579,1.579,0,0,0-.881-.754,1.415,1.415,0,0,0-.552-.066,1.386,1.386,0,0,0-.536.155,1.646,1.646,0,0,0-.762.891,1.368,1.368,0,0,0-.073.556,1.48,1.48,0,0,0,1.583,1.355,1.373,1.373,0,0,0,.538-.157A1.574,1.574,0,0,0,115.148,416.442Z" transform="translate(-102.652 -399.713)" fill="#fff"/>
      <path id="Path_441" data-name="Path 441" d="M122.361,410.372l-2.339-2.624.278-.247,2.125,2.384,1.469-1.309.214.239Z" transform="translate(-106.718 -396.512)" fill="#fff"/>
      <path id="Path_442" data-name="Path 442" d="M129.962,404.118l-2.012-2.881.3-.213,1.829,2.618,1.614-1.127.184.263Z" transform="translate(-110.842 -393.143)" fill="#fff"/>
      <path id="Path_443" data-name="Path 443" d="M144.015,394.787l-1.293-2.92-1.13.5-.129-.294,2.6-1.15.13.294-1.129.5,1.293,2.92Z" transform="translate(-117.871 -387.889)" fill="#fff"/>
      <path id="Path_444" data-name="Path 444" d="M154.493,391.444a2,2,0,0,1-.743.08,1.732,1.732,0,0,1-1.2-.631,1.9,1.9,0,0,1-.4-1.363,1.744,1.744,0,0,1,.666-1.179,2.1,2.1,0,0,1,1.412-.415,1.751,1.751,0,0,1,.666.194,1.714,1.714,0,0,1,.531.435,1.908,1.908,0,0,1,.4,1.368,1.7,1.7,0,0,1-.212.654,1.758,1.758,0,0,1-.455.524A1.984,1.984,0,0,1,154.493,391.444Zm-.093-.318a1.551,1.551,0,0,0,.531-.268,1.381,1.381,0,0,0,.361-.426,1.405,1.405,0,0,0,.166-.53,1.582,1.582,0,0,0-.327-1.112,1.435,1.435,0,0,0-.427-.357,1.387,1.387,0,0,0-.535-.162,1.548,1.548,0,0,0-.591.061,1.581,1.581,0,0,0-.534.269,1.378,1.378,0,0,0-.364.426,1.481,1.481,0,0,0,.587,2,1.383,1.383,0,0,0,.537.162A1.58,1.58,0,0,0,154.4,391.126Z" transform="translate(-123.424 -386.33)" fill="#fff"/>
      <path id="Path_445" data-name="Path 445" d="M171.341,388.487l-.27-3.5.371-.028.245,3.184,1.962-.151.025.321Z" transform="translate(-133.273 -384.784)" fill="#fff"/>
      <path id="Path_446" data-name="Path 446" d="M181.443,387.806l2.111.1-.015.321-2.482-.115.163-3.51,2.408.112-.016.32-2.036-.094Zm.035-1.622,1.856.086-.015.316-1.855-.086Z" transform="translate(-138.468 -384.599)" fill="#fff"/>
      <path id="Path_447" data-name="Path 447" d="M190.106,389.094l2.2-3.174.36.065.958,3.743-.385-.069-.868-3.508.148.027-2.038,2.984Zm.789-.811.163-.277,2.011.362.056.316Z" transform="translate(-143.175 -385.286)" fill="#fff"/>
      <path id="Path_448" data-name="Path 448" d="M201.774,391.4l1.086-3.342,1.251.406a1.887,1.887,0,0,1,.686.373,1.107,1.107,0,0,1,.343.544,1.176,1.176,0,0,1-.036.672,1.16,1.16,0,0,1-.363.556,1.1,1.1,0,0,1-.6.238,1.876,1.876,0,0,1-.775-.1l-1.056-.343.21-.111-.4,1.223Zm.741-1.079-.1-.218,1.046.34a1.215,1.215,0,0,0,.833.028.909.909,0,0,0,.4-1.237,1.212,1.212,0,0,0-.69-.467l-1.046-.34.212-.116Zm1.542,1.821-.465-1.492.381.124.471,1.494Z" transform="translate(-149.244 -386.398)" fill="#fff"/>
      <path id="Path_449" data-name="Path 449" d="M211.937,395.286l1.543-3.158.275.135.838,3.807-.145-.07,1.341-2.743.329.161-1.543,3.158-.275-.134-.833-3.8.144.07-1.34,2.743Z" transform="translate(-154.531 -388.516)" fill="#fff"/>
      <path id="Path_450" data-name="Path 450" d="M227.309,404.652l2.221-2.724.238.194-.487,3.14-.125-.1,2.966-1.118.237.193-2.221,2.724-.276-.225,1.868-2.292.066.053-2.722,1.02-.136-.111.442-2.878.074.06-1.868,2.292Z" transform="translate(-162.527 -393.613)" fill="#fff"/>
      <path id="Path_451" data-name="Path 451" d="M238.759,415.463a2.007,2.007,0,0,1-.39-.638,1.726,1.726,0,0,1,.056-1.355,1.9,1.9,0,0,1,1.06-.946,1.752,1.752,0,0,1,.681-.089,1.732,1.732,0,0,1,.67.186,2.1,2.1,0,0,1,.979,1.1,1.753,1.753,0,0,1,.11.686,1.714,1.714,0,0,1-.166.666,1.83,1.83,0,0,1-.44.578,1.807,1.807,0,0,1-.624.371,1.706,1.706,0,0,1-.681.089,1.751,1.751,0,0,1-.669-.188A1.979,1.979,0,0,1,238.759,415.463Zm.248-.221a1.556,1.556,0,0,0,.47.365,1.387,1.387,0,0,0,.539.145,1.419,1.419,0,0,0,.55-.078,1.471,1.471,0,0,0,.507-.3,1.49,1.49,0,0,0,.359-.468,1.433,1.433,0,0,0,.139-.538,1.384,1.384,0,0,0-.082-.552,1.646,1.646,0,0,0-.781-.875,1.383,1.383,0,0,0-.541-.146,1.48,1.48,0,0,0-1.555,1.387,1.378,1.378,0,0,0,.084.555A1.563,1.563,0,0,0,239.006,415.242Z" transform="translate(-168.222 -399.077)" fill="#fff"/>
      <path id="Path_452" data-name="Path 452" d="M244.863,423.453l2.93-1.942.727,1.1a1.877,1.877,0,0,1,.305.719,1.106,1.106,0,0,1-.071.64,1.175,1.175,0,0,1-.446.5,1.159,1.159,0,0,1-.63.209,1.1,1.1,0,0,1-.616-.185,1.887,1.887,0,0,1-.544-.561l-.613-.925.234.044-1.071.71Zm1.252-.384.055-.235.607.917a1.213,1.213,0,0,0,.634.54.909.909,0,0,0,1.084-.718,1.218,1.218,0,0,0-.25-.8l-.607-.916.238.041Zm.074,2.384.564-1.458.222.334-.561,1.463Z" transform="translate(-171.659 -403.8)" fill="#fff"/>
      <path id="Path_453" data-name="Path 453" d="M250.961,433.3l.926,1.9-.288.141-1.09-2.234,3.159-1.541,1.056,2.166-.289.141-.893-1.832Zm1.439-.748.815,1.67-.285.139-.814-1.67Z" transform="translate(-174.596 -409.033)" fill="#fff"/>
    </g>
  </g>
</svg>
