<svg xmlns="http://www.w3.org/2000/svg" width="36.233" height="36.233" viewBox="0 0 36.233 36.233">
  <g id="Group_68" data-name="Group 68" transform="translate(-473.909 -625.058)">
    <circle id="Ellipse_5" data-name="Ellipse 5" cx="18.117" cy="18.117" r="18.117" transform="translate(473.909 625.057)"/>
    <g id="Group_67" data-name="Group 67">
      <path id="Path_462" data-name="Path 462" d="M482.7,652.525l1.34-5a9.258,9.258,0,1,1,3.688,3.656Zm5.278-3.222.317.189a7.512,7.512,0,1,0-2.572-2.548l.195.319-.749,2.793Z" fill="#fff"/>
      <path id="Path_463" data-name="Path 463" d="M495.553,644.345a1.549,1.549,0,0,0-1.323-.3c-.343.14-.563.678-.785.953a.329.329,0,0,1-.426.092,6,6,0,0,1-2.991-2.561.367.367,0,0,1,.047-.5,2.023,2.023,0,0,0,.543-.882,1.932,1.932,0,0,0-.243-1.044,2.48,2.48,0,0,0-.77-1.161,1.057,1.057,0,0,0-1.147.17,2.328,2.328,0,0,0-.807,1.845,2.618,2.618,0,0,0,.072.585,4.829,4.829,0,0,0,.562,1.294,10.132,10.132,0,0,0,.586.891,9.056,9.056,0,0,0,2.542,2.361,7.723,7.723,0,0,0,1.585.753,3.523,3.523,0,0,0,1.846.292,2.233,2.233,0,0,0,1.673-1.245,1.078,1.078,0,0,0,.078-.635C496.5,644.816,495.907,644.556,495.553,644.345Z" fill="#fff" fill-rule="evenodd"/>
    </g>
  </g>
</svg>
