<svg xmlns="http://www.w3.org/2000/svg" width="36.233" height="36.233" viewBox="0 0 36.233 36.233">
  <g id="Group_73" data-name="Group 73" transform="translate(-530.119 -625.058)">
    <circle id="Ellipse_8" data-name="Ellipse 8" cx="18.117" cy="18.117" r="18.117" transform="translate(530.119 625.057)"/>
    <path id="Path_470" data-name="Path 470" d="M557.035,640.876a3.862,3.862,0,0,0-3.862-3.861H543.3a3.861,3.861,0,0,0-3.861,3.861v4.6a3.861,3.861,0,0,0,3.861,3.861h9.875a3.862,3.862,0,0,0,3.862-3.861Zm-5.808,2.642-4.428,2.191c-.173.094-.763-.032-.763-.229v-4.5c0-.2.595-.325.768-.226l4.239,2.306C551.221,643.164,551.407,643.421,551.227,643.518Z" fill="#fff"/>
  </g>
</svg>
